#!OML:ASF I:\golf\golf\golf 2\Subject 1\2002-09-07\Subject1.ASF
:FULLY-SPECIFIED
:DEGREES
211
root 1.38489 17.8285 -8.35661 15.5979 8.70265 -3.20404
lowerback 5.28172 1.42788 -3.4885
upperback 5.89915 1.74293 3.95435
thorax 2.9299 0.667035 6.0323
lowerneck -16.9405 -1.9725 -1.39802
upperneck 38.5921 0.390605 -6.55551
head 16.8987 -0.898104 -2.59356
rclavicle 2.06736e-014 7.15625e-015
rhumerus -17.9131 9.00246 -80.1026
rradius 35.3013
rwrist -13.4572
rhand -20.6769 11.23
rfingers 7.12502
rthumb 5.6863 -18.6737
lclavicle 2.06736e-014 7.15625e-015
lhumerus -23.9822 3.20073 82.1447
lradius 33.4364
lwrist 5.72123
lhand -8.37172 32.5732
lfingers 7.12502
lthumb 17.5511 61.8009
rfemur -45.0877 0.205797 19.939
rtibia 27.2742
rfoot -5.16651 -5.39253
rtoes -3.21061
lfemur -18.6276 -1.27479 -17.0781
ltibia 28.4935
lfoot -22.0735 -5.67082
ltoes 1.8567
212
root 1.3699 17.8275 -8.30926 15.8797 9.10717 -3.00986
lowerback 5.49624 1.4037 -3.54794
upperback 6.09207 1.70248 4.04993
thorax 3.01519 0.636318 6.16862
lowerneck -17.2166 -2.10477 -1.78996
upperneck 38.6143 0.245082 -6.29588
head 16.9779 -0.97963 -2.44033
rclavicle -1.90833e-014 3.18055e-015
rhumerus -17.3447 9.19316 -79.8551
rradius 35.3117
rwrist -13.349
rhand -20.8966 11.3067
rfingers 7.12502
rthumb 5.47415 -18.6026
lclavicle -1.90833e-014 3.18055e-015
lhumerus -23.735 3.37956 82.3344
lradius 33.4926
lwrist 5.70441
lhand -8.28478 32.4281
lfingers 7.12502
lthumb 17.6348 61.6483
rfemur -45.3527 0.373946 19.6269
rtibia 26.6946
rfoot -5.174 -5.33746
rtoes -3.4819
lfemur -18.7214 -1.47901 -17.1302
ltibia 28.3012
lfoot -22.0814 -5.77138
ltoes 1.57164
213
root 1.35522 17.8237 -8.26259 16.1865 9.55319 -2.84938
lowerback 5.75877 1.44011 -3.46296
upperback 6.11865 1.7489 4.06648
thorax 2.89169 0.665791 6.12942
lowerneck -16.997 -2.22663 -1.83699
upperneck 38.5171 0.0038888 -6.13569
head 16.8572 -1.05586 -2.3929
rclavicle -8.74653e-015 -3.18055e-015
rhumerus -17.0277 8.9106 -79.6572
rradius 35.2249
rwrist -12.955
rhand -20.6937 11.079
rfingers 7.12502
rthumb 5.6701 -18.8252
lclavicle -8.74653e-015 -3.18055e-015
lhumerus -23.7366 3.08902 82.4926
lradius 33.6103
lwrist 5.78637
lhand -8.38351 32.4324
lfingers 7.12502
lthumb 17.5398 61.6612
rfemur -45.6458 0.566096 19.3099
rtibia 26.1957
rfoot -4.96077 -5.31306
rtoes -4.68268
lfemur -18.8727 -1.71937 -17.1212
ltibia 28.1437
lfoot -22.0972 -5.8926
ltoes 1.49587
214
root 1.33666 17.8175 -8.21347 16.5096 9.99775 -2.6961
lowerback 5.99054 1.34045 -3.55217
upperback 6.30342 1.60483 4.3158
thorax 2.97023 0.5789 6.45096
lowerneck -17.2526 -2.12558 -2.13567
upperneck 38.4066 0.311574 -6.22606
head 16.8835 -0.986958 -2.32314
rclavicle 2.62396e-014 7.15625e-015
rhumerus -16.3729 9.48365 -79.1834
rradius 35.3275
rwrist -12.9107
rhand -20.5034 10.809
rfingers 7.12502
rthumb 5.85386 -19.0901
lclavicle 2.62396e-014 7.15625e-015
lhumerus -23.6067 3.58799 82.8606
lradius 33.7862
lwrist 5.71492
lhand -8.34393 32.411
lfingers 7.12502
lthumb 17.5779 61.6363
rfemur -45.9465 0.796181 18.9995
rtibia 25.7655
rfoot -4.74718 -5.32548
rtoes -4.27861
lfemur -19.0599 -1.86644 -17.0779
ltibia 28.0326
lfoot -22.0649 -6.14909
ltoes 2.03052
215
root 1.31692 17.8114 -8.16579 16.8551 10.4833 -2.55145
lowerback 6.23693 1.34212 -3.46162
upperback 6.38389 1.60518 4.38699
thorax 2.91791 0.581218 6.47087
lowerneck -17.0829 -2.31562 -2.26234
upperneck 38.2277 0.0269713 -6.15303
head 16.7341 -1.10464 -2.30647
rclavicle -1.47101e-014 -8.74653e-015
rhumerus -16.0783 9.67947 -78.996
rradius 35.5184
rwrist -13.0226
rhand -20.5012 10.7423
rfingers 7.12502
rthumb 5.85595 -19.1567
lclavicle -1.47101e-014 -8.74653e-015
lhumerus -23.6223 3.36257 83.044
lradius 34.0823
lwrist 5.84122
lhand -8.19009 32.3251
lfingers 7.12502
lthumb 17.7259 61.5371
rfemur -46.2892 0.901338 18.7644
rtibia 25.429
rfoot -4.69202 -5.21629
rtoes -3.16935
lfemur -19.3095 -2.03639 -17.0216
ltibia 27.9471
lfoot -22.0829 -6.28748
ltoes 1.7078
216
root 1.29904 17.808 -8.11781 17.2171 11.0305 -2.4534
lowerback 6.36272 1.49837 -3.01316
upperback 6.5084 1.82913 4.20501
thorax 2.96104 0.711669 6.00924
lowerneck -16.9922 -2.6337 -1.78238
upperneck 38.0809 -0.660667 -6.07935
head 16.592 -1.29907 -2.47339
rclavicle 5.20816e-014 -7.95139e-015
rhumerus -15.8621 8.97439 -79.0758
rradius 35.681
rwrist -13.0124
rhand -20.6125 10.7731
rfingers 7.12502
rthumb 5.74848 -19.1289
lclavicle 5.20816e-014 -7.95139e-015
lhumerus -23.3614 2.07779 83.0338
lradius 34.3729
lwrist 6.25702
lhand -8.2825 32.4192
lfingers 7.12502
lthumb 17.637 61.6393
rfemur -46.6328 0.977146 18.5522
rtibia 25.2122
rfoot -4.91205 -5.02669
rtoes -3.67987
lfemur -19.6006 -2.26443 -16.9127
ltibia 27.87
lfoot -22.1807 -6.36453
ltoes 0.826751
217
root 1.27957 17.8025 -8.06334 17.533 11.5343 -2.32008
lowerback 7.06692 1.48716 -2.69151
upperback 6.3743 1.82338 4.11519
thorax 2.43862 0.738878 5.70802
lowerneck -17.0164 -2.74442 -1.64014
upperneck 38.1997 -0.895593 -6.0059
head 16.6467 -1.36193 -2.51485
rclavicle 1.47101e-014 -3.97569e-015
rhumerus -15.9102 9.0391 -79.2088
rradius 35.8839
rwrist -13.0741
rhand -20.714 10.8299
rfingers 7.12502
rthumb 5.65044 -19.0747
lclavicle 1.47101e-014 -3.97569e-015
lhumerus -23.652 1.52274 82.9486
lradius 34.7069
lwrist 6.54663
lhand -8.34316 32.402
lfingers 7.12502
lthumb 17.5786 61.6273
rfemur -46.8792 1.15221 18.2554
rtibia 25.0903
rfoot -5.08876 -4.93125
rtoes -3.49502
lfemur -19.8121 -2.42264 -16.8299
ltibia 27.825
lfoot -22.384 -6.5829
ltoes 0.50709
218
root 1.25838 17.7902 -8.00634 17.8561 11.9407 -2.05008
lowerback 7.2328 1.54066 -2.79117
upperback 6.62137 1.8853 4.21083
thorax 2.59469 0.756455 5.86497
lowerneck -17.178 -2.90049 -1.76176
upperneck 38.0779 -1.13013 -5.88394
head 16.6158 -1.45593 -2.47901
rclavicle 1.66979e-014 3.81667e-014
rhumerus -15.3363 9.15625 -78.8888
rradius 36.013
rwrist -13.2435
rhand -20.7981 10.8219
rfingers 7.12502
rthumb 5.56925 -19.0849
lclavicle 1.66979e-014 3.81667e-014
lhumerus -23.3642 1.36214 83.2362
lradius 34.9208
lwrist 6.5361
lhand -8.18135 32.3664
lfingers 7.12502
lthumb 17.7343 61.5777
rfemur -47.1173 1.21646 17.8992
rtibia 25.0593
rfoot -5.08986 -4.64081
rtoes -2.34598
lfemur -19.987 -2.49522 -16.9063
ltibia 27.8003
lfoot -22.5959 -6.92282
ltoes 0.467006
219
root 1.23561 17.7748 -7.9518 18.2393 12.3673 -1.78218
lowerback 7.6854 1.48287 -2.78634
upperback 6.68075 1.80441 4.27113
thorax 2.4157 0.718649 5.92115
lowerneck -17.2809 -2.90204 -1.90888
upperneck 38.0321 -1.11663 -5.7755
head 16.6222 -1.45512 -2.40224
rclavicle -2.38542e-014 1.59028e-014
rhumerus -14.9217 9.58849 -78.7527
rradius 36.1257
rwrist -13.3749
rhand -20.8613 10.6758
rfingers 7.12502
rthumb 5.50827 -19.2326
lclavicle -2.38542e-014 1.59028e-014
lhumerus -23.421 1.2381 83.4138
lradius 35.2828
lwrist 6.67743
lhand -8.16563 32.446
lfingers 7.12502
lthumb 17.7495 61.6559
rfemur -47.3981 1.23611 17.5628
rtibia 25.082
rfoot -5.08751 -4.24685
rtoes -1.24789
lfemur -20.2782 -2.56262 -16.9652
ltibia 27.8307
lfoot -22.7351 -7.33887
ltoes 0.461989
220
root 1.20885 17.7598 -7.89609 18.6925 12.876 -1.5998
lowerback 8.00213 1.40207 -2.65771
upperback 6.77469 1.70095 4.34144
thorax 2.35378 0.670373 5.9237
lowerneck -17.2443 -3.16418 -2.28526
upperneck 37.8231 -1.44857 -5.60906
head 16.5016 -1.61877 -2.31078
rclavicle -2.38542e-015 2.38542e-014
rhumerus -14.4148 9.97128 -78.6392
rradius 36.2202
rwrist -13.5042
rhand -20.7917 10.7284
rfingers 7.12502
rthumb 5.57549 -19.1782
lclavicle -2.38542e-015 2.38542e-014
lhumerus -23.4059 1.03882 83.5423
lradius 35.7051
lwrist 6.91753
lhand -8.15844 32.4055
lfingers 7.12502
lthumb 17.7564 61.6148
rfemur -47.7196 1.34091 17.2704
rtibia 25.1061
rfoot -5.03035 -4.02783
rtoes -0.460304
lfemur -20.7348 -2.54293 -16.902
ltibia 27.9569
lfoot -22.9379 -7.77302
ltoes -0.150126
221
root 1.17516 17.7465 -7.83879 19.1794 13.5531 -1.67599
lowerback 8.15409 1.22685 -2.48476
upperback 6.97493 1.47383 4.70458
thorax 2.50638 0.548369 6.22788
lowerneck -17.5737 -3.1305 -2.68744
upperneck 37.563 -1.23695 -5.63533
head 16.4672 -1.59397 -2.20924
rclavicle 2.22639e-014 -2.78299e-014
rhumerus -13.6097 10.7773 -78.221
rradius 36.3607
rwrist -13.7537
rhand -20.84 10.9399
rfingers 7.12502
rthumb 5.52882 -18.9679
lclavicle 2.22639e-014 -2.78299e-014
lhumerus -23.2249 1.55116 83.8809
lradius 36.1444
lwrist 6.96732
lhand -8.02575 32.2139
lfingers 7.12502
lthumb 17.8841 61.4116
rfemur -48.1056 1.59224 17.1949
rtibia 25.1498
rfoot -4.84225 -4.09726
rtoes -1.22104
lfemur -21.3628 -2.48762 -16.4812
ltibia 28.1444
lfoot -23.0844 -8.4082
ltoes -0.183764
222
root 1.13862 17.7316 -7.78138 19.6747 14.3048 -1.82986
lowerback 8.34704 1.50658 -1.8376
upperback 6.94245 1.88292 4.63578
thorax 2.32989 0.784918 5.74985
lowerneck -17.3176 -3.52961 -1.92861
upperneck 37.3814 -2.13149 -5.60279
head 16.2536 -1.83956 -2.47204
rclavicle 1.43125e-014 2.38542e-015
rhumerus -13.6603 9.59631 -78.2961
rradius 36.5757
rwrist -13.5918
rhand -20.9395 10.9497
rfingers 7.12502
rthumb 5.43279 -18.9606
lclavicle 1.43125e-014 2.38542e-015
lhumerus -23.1205 -0.136901 83.9487
lradius 36.6417
lwrist 7.32523
lhand -8.05189 32.3364
lfingers 7.12502
lthumb 17.8589 61.5364
rfemur -48.5328 1.92738 17.1557
rtibia 25.2584
rfoot -4.5367 -4.2486
rtoes -3.19493
lfemur -22.0474 -2.50302 -15.9192
ltibia 28.3362
lfoot -23.2059 -9.12854
ltoes 0.582647
223
root 1.11004 17.7136 -7.71849 20.225 14.8634 -1.55909
lowerback 8.46212 1.41206 -1.92381
upperback 7.17147 1.74935 4.8819
thorax 2.51676 0.702342 6.07406
lowerneck -17.5204 -3.6111 -2.2871
upperneck 37.0741 -2.13594 -5.57818
head 16.1583 -1.88786 -2.38982
rclavicle -1.35174e-014 -1.19271e-014
rhumerus -12.8697 10.2383 -77.8263
rradius 36.7157
rwrist -13.7707
rhand -20.864 10.7007
rfingers 7.12502
rthumb 5.50568 -19.2078
lclavicle -1.35174e-014 -1.19271e-014
lhumerus -22.927 -0.106884 84.3874
lradius 37.1605
lwrist 7.36811
lhand -8.28279 32.5766
lfingers 7.12502
lthumb 17.6367 61.7967
rfemur -48.8838 1.87316 16.8802
rtibia 25.4516
rfoot -4.29298 -3.8933
rtoes -4.72113
lfemur -22.5388 -2.7387 -15.8631
ltibia 28.4531
lfoot -23.4796 -9.44837
ltoes 0.788336
224
root 1.08656 17.6979 -7.65095 20.7918 15.2964 -1.11238
lowerback 8.51265 1.60686 -2.03804
upperback 7.24285 2.00105 4.87245
thorax 2.5313 0.823521 6.11242
lowerneck -16.9428 -4.13156 -2.26084
upperneck 36.5907 -3.0057 -5.4468
head 15.7457 -2.21671 -2.44732
rclavicle -2.46493e-014 -6.36111e-014
rhumerus -12.7105 9.80968 -77.587
rradius 36.8201
rwrist -13.7794
rhand -20.9943 10.7436
rfingers 7.12502
rthumb 5.37981 -19.1681
lclavicle -2.46493e-014 -6.36111e-014
lhumerus -22.9689 -1.23766 84.7285
lradius 37.607
lwrist 7.43433
lhand -8.44665 32.5417
lfingers 7.12502
lthumb 17.479 61.7759
rfemur -49.1752 1.5282 16.5976
rtibia 25.7413
rfoot -3.88143 -3.29244
rtoes -3.8897
lfemur -22.8606 -3.16377 -16.0118
ltibia 28.4292
lfoot -23.6537 -9.57375
ltoes 1.23494
